# xmcd CD database file
#
# Track frame offsets:
#	150
#	46049
#	86164
#	112632
#	156579
#	204196
#	238511
#
# Disc length: 3954 seconds
#
# Revision: 0
# Processed by: cddbd v1.5.2PL0 Copyright (c) Steve Scherf et al.
# Submitted via: CDex 1.51
#
DISCID=4b0f7007
DTITLE=PJ PERRY CAMPBELL RYGA QUINTET - Joined at the Hip
DYEAR=2006
DGENRE=Jazz
TTITLE0=Ah Leu Cha
TTITLE1=Conn Alto
TTITLE2=Everything happens to me
TTITLE3=Royal Tease
TTITLE4=Maybe Yes, Maybe No
TTITLE5=I Can't Get Started
TTITLE6=Line For Art
EXTD=YEAR: 2006
EXTT0=
EXTT1=
EXTT2=
EXTT3=
EXTT4=
EXTT5=
EXTT6=
PLAYORDER=
